# xmcd
#
# Track frame offsets: 
#        150
#        20719
#        40965
#        68630
#        96583
#        119834
#        141598
#        159332
#        182797
#        199005
#        221038
#        248439
#        272842
#
# Disc length: 3971 seconds
#
# Revision: 0
# Processed by: cddbd v1.5.2PL0 Copyright (c) Steve Scherf et al.
# Submitted via: ExactAudioCopy v1.3
#
DISCID=ca0f810d
DTITLE=Paul Gabriel - Man Of Many Blues
DYEAR=2019
DGENRE=Electric Blues
TTITLE0=I Feel Good
TTITLE1=Maybe We Can Talk Awhile
TTITLE2=Cold, Cold, Cold
TTITLE3=It Be That Way Sometimes
TTITLE4=No Finance, No Romance
TTITLE5=Blues For Georgia
TTITLE6=Second Story Man
TTITLE7=Man Of Many Blues
TTITLE8=Face Full Of Frown
TTITLE9=On That Train
TTITLE10=Just A Bitterness
TTITLE11=Angel
TTITLE12=Dear John Letter
EXTD=
EXTT0=
EXTT1=
EXTT2=
EXTT3=
EXTT4=
EXTT5=
EXTT6=
EXTT7=
EXTT8=
EXTT9=
EXTT10=
EXTT11=
EXTT12=
PLAYORDER=
